HIERARCHY
ROOT Hips
{
	OFFSET -13.091600 -28.302996 44.698402
	CHANNELS 6 Xposition Yposition Zposition Zrotation Xrotation Yrotation
	JOINT Chest
	{
		OFFSET -0.673000 0.623899 5.369202
		CHANNELS 6 Xposition Yposition Zposition Zrotation Xrotation Yrotation
		JOINT Chest2
		{
			OFFSET 0.000000 0.000000 4.415001
			CHANNELS 6 Xposition Yposition Zposition Zrotation Xrotation Yrotation
			JOINT Neck
			{
				OFFSET 0.000000 0.000002 10.273300
				CHANNELS 6 Xposition Yposition Zposition Zrotation Xrotation Yrotation
				JOINT Head
				{
					OFFSET 0.000000 0.000000 2.173897
					CHANNELS 6 Xposition Yposition Zposition Zrotation Xrotation Yrotation
					End Site
					{
						OFFSET 0.000000 0.000000 9.961800
					}
				}
			}
			JOINT LeftCollar
			{
				OFFSET 2.359900 -0.565201 5.928101
				CHANNELS 6 Xposition Yposition Zposition Zrotation Xrotation Yrotation
				JOINT LeftShoulder
				{
					OFFSET 5.443700 0.000000 0.000000
					CHANNELS 6 Xposition Yposition Zposition Zrotation Xrotation Yrotation
					JOINT LeftElbow
					{
						OFFSET 0.000000 0.000000 -10.615799
						CHANNELS 6 Xposition Yposition Zposition Zrotation Xrotation Yrotation
						JOINT LeftWrist
						{
							OFFSET 0.000000 -0.000002 -13.110302
							CHANNELS 6 Xposition Yposition Zposition Zrotation Xrotation Yrotation
							End Site
							{
								OFFSET 0.000000 0.000000 -2.173901
							}
						}
					}
				}
			}
			JOINT RightCollar
			{
				OFFSET -2.636600 -1.718800 6.889698
				CHANNELS 6 Xposition Yposition Zposition Zrotation Xrotation Yrotation
				JOINT RightShoulder
				{
					OFFSET -4.139101 0.000000 0.000000
					CHANNELS 6 Xposition Yposition Zposition Zrotation Xrotation Yrotation
					JOINT RightElbow
					{
						OFFSET 0.000000 0.000000 -10.471802
						CHANNELS 6 Xposition Yposition Zposition Zrotation Xrotation Yrotation
						JOINT RightWrist
						{
							OFFSET 0.000000 0.000000 -12.281898
							CHANNELS 6 Xposition Yposition Zposition Zrotation Xrotation Yrotation
							End Site
							{
								OFFSET 0.000000 -0.000002 -2.173901
							}
						}
					}
				}
			}
		}
	}
	JOINT LeftHip
	{
		OFFSET 2.273400 0.176701 -2.518002
		CHANNELS 6 Xposition Yposition Zposition Zrotation Xrotation Yrotation
		JOINT LeftKnee
		{
			OFFSET 0.000000 -0.000002 -20.456402
			CHANNELS 6 Xposition Yposition Zposition Zrotation Xrotation Yrotation
			JOINT LeftAnkle
			{
				OFFSET 0.000000 -0.000002 -16.635300
				CHANNELS 6 Xposition Yposition Zposition Zrotation Xrotation Yrotation
				End Site
				{
					OFFSET 0.000000 -8.812399 0.000001
				}
			}
		}
	}
	JOINT RightHip
	{
		OFFSET -1.914800 0.018101 -2.699299
		CHANNELS 6 Xposition Yposition Zposition Zrotation Xrotation Yrotation
		JOINT RightKnee
		{
			OFFSET 0.000000 -0.000002 -20.148901
			CHANNELS 6 Xposition Yposition Zposition Zrotation Xrotation Yrotation
			JOINT RightAnkle
			{
				OFFSET 0.000000 -0.000002 -16.838301
				CHANNELS 6 Xposition Yposition Zposition Zrotation Xrotation Yrotation
				End Site
				{
					OFFSET 0.000000 -8.328398 0.000001
				}
			}
		}
	}
}
MOTION
Frames: 5
Frame Time: 0.041667
-27.967999 -7.274393 41.933205 364.302947 1.238062 4.099943 -0.672996 0.623898 5.369210 -3.152387 -5.849063 11.539796 -0.000006 -0.000002 4.415009 -5.788212 -1.266514 -0.955860 -0.000003 -0.000004 10.273304 -15.897993 33.885576 0.888267 0.000002 -0.000001 2.173903 2.298178 1.539577 -4.072846 2.359897 -0.565203 5.928104 10.187321 -7.484024 -34.146380 5.443695 -0.000000 -0.000003 170.011905 223.781873 -267.921793 -0.000001 0.000002 -10.615797 326.082739 -104.108837 291.743361 0.000005 0.000004 -13.110292 -309.551522 -16.978851 34.788780 -2.636602 -1.718802 6.889705 -6.172106 -4.478577 21.817147 -4.139089 -0.000004 -0.000006 207.863174 -123.832928 293.327665 -0.000000 -0.000001 -10.471797 -65.874962 -39.923593 -66.607684 -0.000002 -0.000003 -12.281895 -4.458026 -24.719628 -21.019118 2.273401 0.176702 -2.518007 -117.196566 -140.630972 -177.042096 -0.000000 -0.000001 -20.456400 -110.633642 34.736266 97.071413 -0.000007 -0.000000 -16.635294 40.748308 29.615813 41.821863 -1.914797 0.018102 -2.699294 148.372937 201.756343 167.160014 0.000003 -0.000005 -20.148901 24.840211 57.362312 -26.023144 0.000001 -0.000002 -16.838303 -32.285246 3.081021 -3.620699
-28.061501 -7.291492 41.807507 364.040231 1.363975 4.047448 -0.673001 0.623900 5.369211 -2.770653 -6.281246 12.130622 0.000001 -0.000001 4.415004 -6.374939 -1.180047 -0.994345 0.000001 -0.000004 10.273298 -16.075424 33.171480 0.540419 0.000001 -0.000008 2.173903 2.064204 1.313425 -4.125964 2.359901 -0.565204 5.928098 10.249921 -7.635917 -34.519073 5.443698 -0.000002 -0.000002 169.338230 226.447887 -269.243762 -0.000001 0.000010 -10.615793 326.372803 -104.606328 291.541133 0.000004 0.000005 -13.110294 -310.845242 -16.456400 33.350799 -2.636596 -1.718805 6.889699 -6.191084 -4.729210 21.678961 -4.139094 -0.000002 0.000004 210.903155 -122.766817 295.751562 0.000003 0.000012 -10.471795 -64.577915 -38.255726 -63.732966 0.000007 -0.000006 -12.281894 -4.027001 -24.668908 -21.001898 2.273394 0.176702 -2.518002 -113.702555 -140.077249 -174.985854 0.000001 -0.000004 -20.456396 -113.305489 33.721867 97.863292 -0.000014 -0.000000 -16.635294 41.410791 29.621946 42.330654 -1.914802 0.018102 -2.699294 148.064977 202.078947 166.740654 0.000002 0.000001 -20.148901 26.125738 57.888654 -26.831654 -0.000001 -0.000001 -16.838301 -32.658013 2.674158 -3.799364
-28.146099 -7.306692 41.692902 363.805928 1.478239 4.225081 -0.673000 0.623898 5.369207 -2.445638 -6.640982 12.530557 0.000004 -0.000002 4.415009 -7.016101 -1.103100 -1.045656 0.000004 -0.000001 10.273293 -16.241239 32.390499 0.112178 0.000001 -0.000007 2.173904 1.850838 1.129226 -4.113536 2.359905 -0.565203 5.928099 10.447211 -8.073766 -35.186041 5.443698 -0.000001 0.000002 168.589368 228.714649 -270.338751 -0.000003 0.000008 -10.615796 326.070608 -105.492470 291.035754 0.000004 -0.000001 -13.110300 -312.422606 -15.725768 32.194223 -2.636602 -1.718801 6.889695 -6.253000 -4.996945 21.334624 -4.139101 -0.000002 -0.000004 214.367796 -121.955159 298.532160 -0.000005 -0.000002 -10.471799 -63.303552 -36.834858 -61.002557 0.000004 -0.000001 -12.281900 -3.537425 -24.487797 -20.546688 2.273398 0.176698 -2.518002 -110.452492 -139.455278 -173.067158 -0.000002 -0.000003 -20.456396 -115.774029 32.904532 98.567361 -0.000006 -0.000002 -16.635296 42.038824 29.678193 42.707827 -1.914801 0.018103 -2.699294 147.752073 202.255288 166.139133 -0.000002 0.000001 -20.148903 27.162501 58.363878 -27.447547 0.000004 -0.000003 -16.838301 -32.969299 2.355685 -3.969868
-28.222601 -7.318695 41.588303 363.597389 1.609446 4.396095 -0.672997 0.623900 5.369202 -2.148860 -6.996676 12.942456 -0.000000 -0.000001 4.415011 -7.671032 -1.024194 -1.101567 -0.000006 -0.000001 10.273312 -16.398495 31.662155 -0.324177 0.000003 -0.000006 2.173906 1.625386 0.862207 -4.082911 2.359895 -0.565202 5.928108 10.722705 -8.695113 -36.025023 5.443698 -0.000002 0.000003 167.789211 230.199368 -271.256182 0.000000 0.000009 -10.615796 326.762260 -106.107699 291.249730 0.000002 0.000001 -13.110303 -313.412956 -15.184672 31.390843 -2.636606 -1.718804 6.889709 -6.327619 -5.257281 20.920692 -4.139099 0.000003 -0.000001 217.914863 -121.426693 301.409090 -0.000002 -0.000002 -10.471800 -62.178600 -35.441001 -58.372251 0.000008 -0.000001 -12.281902 -2.967677 -24.409407 -20.117202 2.273394 0.176701 -2.518015 -107.343840 -138.956223 -171.138231 0.000000 -0.000002 -20.456396 -118.065366 32.179415 99.200711 -0.000007 -0.000001 -16.635292 42.658015 29.717231 43.039877 -1.914799 0.018106 -2.699302 147.366276 202.434786 165.514390 -0.000005 -0.000004 -20.148903 28.089633 58.851533 -27.918415 0.000000 -0.000002 -16.838299 -33.205395 2.098799 -4.107273
-28.290600 -7.328192 41.492203 363.415842 1.731609 4.549533 -0.672999 0.623899 5.369213 -1.881339 -7.310084 13.383661 -0.000002 -0.000001 4.415007 -8.347453 -0.959580 -1.165250 -0.000001 -0.000001 10.273303 -16.691145 30.923374 -0.673414 0.000001 -0.000002 2.173911 1.550905 0.610091 -4.142606 2.359906 -0.565203 5.928095 11.115722 -9.537620 -36.978207 5.443698 -0.000005 0.000001 166.794722 231.364462 -272.138314 -0.000004 0.000009 -10.615801 326.839606 -106.668540 291.074959 0.000004 0.000000 -13.110291 -314.309104 -14.189534 30.325869 -2.636601 -1.718802 6.889701 -6.440425 -5.480575 20.347243 -4.139100 0.000001 0.000008 221.796801 -121.124348 304.599089 -0.000004 -0.000001 -10.471801 -61.029858 -34.184062 -55.793865 0.000004 -0.000007 -12.281906 -2.326909 -24.285412 -19.495590 2.273394 0.176700 -2.518005 -104.359539 -138.582776 -169.220013 0.000000 -0.000004 -20.456398 -120.228091 31.469185 99.782582 -0.000002 -0.000000 -16.635298 43.319566 29.728757 43.421155 -1.914800 0.018100 -2.699294 146.959552 202.600500 164.909016 0.000003 -0.000004 -20.148901 28.974496 59.318082 -28.330564 -0.000000 -0.000003 -16.838301 -33.423275 1.897442 -4.234310
